# Blender v2.78 (sub 0) OBJ File: 'chest.blend'
# www.blender.org
o cube_Cube
v 0.190769 0.004016 -0.244779
v 0.190769 0.004016 0.249294
v -0.190641 0.004016 0.249294
v -0.190641 0.004016 -0.244779
v 0.190769 0.050811 -0.244778
v 0.190769 0.050811 0.249294
v -0.190641 0.050811 0.249294
v -0.190641 0.050811 -0.244779
v 0.152183 0.050811 -0.194795
v 0.152183 0.050811 0.199311
v -0.152056 0.050811 -0.194795
v -0.152056 0.050811 0.199311
v 0.190769 0.216323 -0.244778
v 0.190769 0.216323 0.249294
v -0.190641 0.216323 -0.244779
v -0.190641 0.216323 0.249294
v 0.152183 0.216323 -0.194795
v 0.152183 0.216323 0.199311
v -0.152056 0.216323 -0.194795
v -0.152056 0.216323 0.199311
vt 0.6921 0.9058
vt 0.2873 0.9058
vt 0.2873 0.5933
vt 0.6921 0.5933
vt 0.4524 0.6276
vt 0.3508 0.6276
vt 0.3507 0.4060
vt 0.4524 0.4060
vt 0.2191 0.6903
vt 0.2191 0.6276
vt 0.3508 0.6902
vt 0.4524 0.6902
vt 0.5840 0.6275
vt 0.5840 0.6902
vt 0.7435 0.6281
vt 0.7435 0.6909
vt 0.5850 0.6909
vt 0.5850 0.6281
vt 0.6606 0.6840
vt 0.6606 0.9703
vt 0.2898 0.9703
vt 0.2898 0.6840
vt 0.7463 0.9799
vt 0.2240 0.9799
vt 0.2240 0.6656
vt 0.7463 0.6656
vt 0.7476 0.9798
vt 0.7476 0.6656
vt 0.5850 0.4059
vt 0.7435 0.4059
vt 0.3914 0.7254
vt 0.5681 0.7254
vt 0.5502 0.7486
vt 0.4093 0.7486
vt 0.5681 0.9542
vt 0.3914 0.9542
vt 0.4093 0.9311
vt 0.5502 0.9311
vt 0.2191 0.4060
vt 0.2215 0.9798
vt 0.2215 0.6655
vt 0.2222 0.9796
vt 0.7486 0.9796
vt 0.7486 0.6709
vt 0.2222 0.6709
vt 0.5840 0.4059
vn 0.0000 -1.0000 0.0000
vn -0.0000 0.0000 1.0000
vn 1.0000 0.0000 0.0000
vn -1.0000 -0.0000 -0.0000
vn 0.0000 0.0000 -1.0000
vn 0.0000 1.0000 -0.0000
s off
f 1/1/1 2/2/1 3/3/1 4/4/1
f 7/5/2 6/6/2 14/7/2 16/8/2
f 1/9/3 5/10/3 6/6/3 2/11/3
f 2/11/2 6/6/2 7/5/2 3/12/2
f 3/12/4 7/5/4 8/13/4 4/14/4
f 5/15/5 1/16/5 4/17/5 8/18/5
f 9/19/6 11/20/6 12/21/6 10/22/6
f 9/23/4 10/24/4 18/25/4 17/26/4
f 10/24/5 12/27/5 20/28/5 18/25/5
f 5/15/5 8/18/5 15/29/5 13/30/5
f 13/31/6 15/32/6 19/33/6 17/34/6
f 16/35/6 14/36/6 18/37/6 20/38/6
f 14/36/6 13/31/6 17/34/6 18/37/6
f 15/32/6 16/35/6 20/38/6 19/33/6
f 6/6/3 5/10/3 13/39/3 14/7/3
f 12/27/3 11/40/3 19/41/3 20/28/3
f 11/42/2 9/43/2 17/44/2 19/45/2
f 8/13/4 7/5/4 16/8/4 15/46/4
